<?xml version="1.0" encoding="UTF-8"?>
<svg xmlns="http://www.w3.org/2000/svg" version="1.1" viewBox="0 0 125 165" width="150px" height="150px">
  <defs>
    <style>
      .cls-1 {
        fill: #fff;
      }

      .cls-2 {
        fill: #010101;
      }
    </style>
  </defs>
  <!-- Generator: Adobe Illustrator 28.7.3, SVG Export Plug-In . SVG Version: 1.2.0 Build 164)  -->
  <g>
    <g id="Layer_1">
      <!-- <sodipodi:namedview id="namedview35" bordercolor="#666666" borderopacity="1" gridtolerance="10" guidetolerance="10" objecttolerance="10" pagecolor="#ffffff" showgrid="false"/> -->
      <g>
        <path class="cls-1" d="M65.94,42.61c23.47,0,42.5,19.03,42.5,42.5s-19.03,42.5-42.5,42.5-42.5-19.03-42.5-42.5,19.03-42.5,42.5-42.5Z"/>
        <path id="path20" class="cls-2" d="M68.36,57.76c-1.22.92-2.14,2.16-2.87,3.49-.57,1-.97,2.08-1.35,3.16-.65,1.92-.92,3.98-1.03,6.01-.11,2.14.14,4.27.65,6.36-2.62,2.27-5.14,4.71-7.17,7.55-1.54,2.19-2.79,4.65-3.19,7.33-.22,1.38-.16,2.81.24,4.14.73,2.46,2.38,4.57,4.46,6.03,1.89,1.35,4.14,2.25,6.44,2.49.95.11,1.89.14,2.81.03.7-.08,1.38-.19,2.06-.38.32,1.7.65,3.41.97,5.14.05.38.08.84.03,1.24-.14,1.11-.7,2.14-1.51,2.87-.43.43-.92.84-1.51,1.11-.7.3-1.46.6-2.25.65-.57.03-1.11.08-1.68-.03,1.11-.49,2.14-1.3,2.57-2.46.41-1.11.32-2.38-.22-3.44-.32-.78-.97-1.38-1.68-1.84-.57-.35-1.22-.54-1.89-.57-1.19-.03-2.41.49-3.25,1.33-.49.62-.87,1.33-1.05,2.11-.24,1.14-.05,2.33.38,3.38.51,1.41,1.73,2.43,3.08,3.03.51.24,1.05.32,1.62.41,1.11.16,2.22.08,3.33-.14,1.05-.24,2.06-.65,2.98-1.27.97-.7,1.84-1.6,2.38-2.68.57-1.08.76-2.33.65-3.54-.05-.43-.08-.87-.19-1.27-.11-.68-.19-1.38-.32-2.06-.08-.65-.24-1.27-.32-1.92-.03-.24-.08-.49-.14-.7,1.6-.84,3.03-2.03,4.06-3.49.95-1.35,1.46-3.03,1.33-4.71-.08-1.51-.68-3-1.65-4.19-.54-.68-1.16-1.24-1.89-1.7-1.3-.84-2.87-1.3-4.41-1.33-.32,0-.65,0-.97.03-.41-1.92-.84-3.84-1.24-5.76,2.35-2.06,4.44-4.49,5.68-7.38,1.03-2.35,1.38-4.98,1-7.49-.43-3.08-1.84-5.92-3.57-8.47-.32-.46-.65-.92-.97-1.35-.08.08-.22.19-.38.3h0ZM69.23,62.98c.89.87,1.43,2.06,1.43,3.3.05,1.73-.68,3.38-1.6,4.82-.51.78-1.11,1.54-1.73,2.25-.14.16-.32.38-.49.54-.49.51-1,1-1.51,1.49-.19-1.05-.14-2.14-.08-3.22.14-2.08.49-4.19,1.27-6.14.38-.95.89-1.87,1.6-2.6.3-.3.7-.46,1.11-.43ZM65.9,88.03c-1.14.32-2.22.92-3.08,1.7-.68.57-1.3,1.22-1.7,2.03-.35.7-.7,1.46-.78,2.25-.19,1.38.08,2.87.97,3.98.68.87,1.6,1.54,2.62,1.89.73.27,1.49.38,2.25.41.35.03.7.05,1.03.08-.65-.51-1.3-1.03-1.97-1.49-.87-.62-1.62-1.54-1.76-2.62-.14-.89.08-1.87.7-2.54.68-.76,1.62-1.24,2.62-1.43.73,3.22,1.49,6.47,2.22,9.68-1.05.51-2.22.62-3.35.62-1.35.03-2.68-.32-3.9-.87-1.14-.54-2.19-1.33-2.98-2.33-.19-.24-.35-.46-.51-.7-.7-1-1.08-2.22-1.16-3.44-.11-2.08.65-4.11,1.76-5.84,1.51-2.35,3.57-4.3,5.73-6.03.14-.11.3-.3.3,0,.32,1.54.68,3.08,1,4.65h0ZM68.9,92c1.11,0,2.19.49,2.89,1.35.46.46.78,1.05,1,1.68.35,1.11.32,2.33-.11,3.41-.38.95-1.03,1.76-1.81,2.43-.7-2.95-1.41-5.9-2.08-8.85,0-.03.05-.03.11-.03Z"/>
      </g>
    </g>
  </g>
</svg>